<mxfile host="app.diagrams.net" agent="Mozilla/5.0 (Windows NT 10.0; Win64; x64) AppleWebKit/537.36 (KHTML, like Gecko) Chrome/127.0.0.0 Safari/537.36" version="24.7.6">
  <diagram name="第 1 页" id="RZydtw0dfkvndmXbP_aF">
    <mxGraphModel dx="1235" dy="654" grid="1" gridSize="10" guides="1" tooltips="1" connect="1" arrows="1" fold="1" page="1" pageScale="1" pageWidth="827" pageHeight="1169" math="0" shadow="0">
      <root>
        <mxCell id="0" />
        <mxCell id="1" parent="0" />
        <mxCell id="8--45SvLZGRJWrr07VA9-4" value="command name 层级" style="swimlane;whiteSpace=wrap;html=1;" parent="1" vertex="1">
          <mxGeometry x="420" y="550" width="620" height="390" as="geometry">
            <mxRectangle x="240" y="80" width="150" height="30" as="alternateBounds" />
          </mxGeometry>
        </mxCell>
        <mxCell id="8--45SvLZGRJWrr07VA9-1" value="放行名单" style="rounded=0;whiteSpace=wrap;html=1;" parent="8--45SvLZGRJWrr07VA9-4" vertex="1">
          <mxGeometry x="20" y="50" width="90" height="30" as="geometry" />
        </mxCell>
        <mxCell id="8--45SvLZGRJWrr07VA9-14" style="edgeStyle=orthogonalEdgeStyle;rounded=0;orthogonalLoop=1;jettySize=auto;html=1;entryX=0;entryY=0.5;entryDx=0;entryDy=0;" parent="8--45SvLZGRJWrr07VA9-4" edge="1">
          <mxGeometry relative="1" as="geometry">
            <mxPoint x="180.00000000000023" y="160" as="targetPoint" />
          </mxGeometry>
        </mxCell>
        <mxCell id="8--45SvLZGRJWrr07VA9-6" value="直接使用" style="rounded=1;whiteSpace=wrap;html=1;fillColor=#dae8fc;strokeColor=#6c8ebf;" parent="8--45SvLZGRJWrr07VA9-4" vertex="1">
          <mxGeometry x="150" y="50" width="80" height="30" as="geometry" />
        </mxCell>
        <mxCell id="8--45SvLZGRJWrr07VA9-5" style="edgeStyle=orthogonalEdgeStyle;rounded=0;orthogonalLoop=1;jettySize=auto;html=1;" parent="8--45SvLZGRJWrr07VA9-4" source="8--45SvLZGRJWrr07VA9-1" target="8--45SvLZGRJWrr07VA9-6" edge="1">
          <mxGeometry relative="1" as="geometry">
            <mxPoint x="200" y="80" as="targetPoint" />
          </mxGeometry>
        </mxCell>
        <mxCell id="8--45SvLZGRJWrr07VA9-17" value="keyword/parameter 层级" style="swimlane;whiteSpace=wrap;html=1;" parent="8--45SvLZGRJWrr07VA9-4" vertex="1">
          <mxGeometry x="300" y="90" width="320" height="300" as="geometry" />
        </mxCell>
        <mxCell id="8--45SvLZGRJWrr07VA9-35" style="edgeStyle=orthogonalEdgeStyle;rounded=0;orthogonalLoop=1;jettySize=auto;html=1;exitX=1;exitY=0.5;exitDx=0;exitDy=0;" parent="8--45SvLZGRJWrr07VA9-17" source="8--45SvLZGRJWrr07VA9-28" target="8--45SvLZGRJWrr07VA9-29" edge="1">
          <mxGeometry relative="1" as="geometry" />
        </mxCell>
        <mxCell id="8--45SvLZGRJWrr07VA9-28" value="映射关系" style="rounded=0;whiteSpace=wrap;html=1;" parent="8--45SvLZGRJWrr07VA9-17" vertex="1">
          <mxGeometry x="10" y="120" width="90" height="30" as="geometry" />
        </mxCell>
        <mxCell id="8--45SvLZGRJWrr07VA9-29" value="处理" style="rounded=1;whiteSpace=wrap;html=1;fillColor=#dae8fc;strokeColor=#6c8ebf;" parent="8--45SvLZGRJWrr07VA9-17" vertex="1">
          <mxGeometry x="140" y="120" width="80" height="30" as="geometry" />
        </mxCell>
        <mxCell id="8--45SvLZGRJWrr07VA9-36" style="edgeStyle=orthogonalEdgeStyle;rounded=0;orthogonalLoop=1;jettySize=auto;html=1;" parent="8--45SvLZGRJWrr07VA9-17" source="8--45SvLZGRJWrr07VA9-34" edge="1">
          <mxGeometry relative="1" as="geometry">
            <mxPoint x="140" y="197.5" as="targetPoint" />
          </mxGeometry>
        </mxCell>
        <mxCell id="8--45SvLZGRJWrr07VA9-34" value="支持参数" style="rounded=0;whiteSpace=wrap;html=1;" parent="8--45SvLZGRJWrr07VA9-17" vertex="1">
          <mxGeometry x="10" y="185" width="90" height="25" as="geometry" />
        </mxCell>
        <mxCell id="8--45SvLZGRJWrr07VA9-37" value="不支持的参数直接返回错误" style="rounded=1;whiteSpace=wrap;html=1;fillColor=#dae8fc;strokeColor=#6c8ebf;" parent="8--45SvLZGRJWrr07VA9-17" vertex="1">
          <mxGeometry x="140" y="176.25" width="80" height="42.5" as="geometry" />
        </mxCell>
        <mxCell id="8--45SvLZGRJWrr07VA9-69" style="edgeStyle=orthogonalEdgeStyle;rounded=0;orthogonalLoop=1;jettySize=auto;html=1;exitX=1;exitY=0.5;exitDx=0;exitDy=0;entryX=0;entryY=0.5;entryDx=0;entryDy=0;" parent="8--45SvLZGRJWrr07VA9-17" source="8--45SvLZGRJWrr07VA9-38" target="8--45SvLZGRJWrr07VA9-68" edge="1">
          <mxGeometry relative="1" as="geometry" />
        </mxCell>
        <mxCell id="8--45SvLZGRJWrr07VA9-38" value="特殊处理" style="rounded=0;whiteSpace=wrap;html=1;" parent="8--45SvLZGRJWrr07VA9-17" vertex="1">
          <mxGeometry x="10" y="250" width="90" height="25" as="geometry" />
        </mxCell>
        <mxCell id="8--45SvLZGRJWrr07VA9-68" value="单位处理..." style="rounded=1;whiteSpace=wrap;html=1;fillColor=#dae8fc;strokeColor=#6c8ebf;" parent="8--45SvLZGRJWrr07VA9-17" vertex="1">
          <mxGeometry x="140" y="241.25" width="80" height="42.5" as="geometry" />
        </mxCell>
        <mxCell id="8--45SvLZGRJWrr07VA9-18" value="所有规则只在本command内生效" style="rounded=1;whiteSpace=wrap;html=1;fillColor=#ffe6cc;strokeColor=#d79b00;" parent="8--45SvLZGRJWrr07VA9-17" vertex="1">
          <mxGeometry x="190" y="30" width="120" height="60" as="geometry" />
        </mxCell>
        <mxCell id="8--45SvLZGRJWrr07VA9-24" value="白名单" style="rounded=0;whiteSpace=wrap;html=1;" parent="8--45SvLZGRJWrr07VA9-4" vertex="1">
          <mxGeometry x="20" y="105" width="90" height="30" as="geometry" />
        </mxCell>
        <mxCell id="8--45SvLZGRJWrr07VA9-25" value="处理" style="rounded=1;whiteSpace=wrap;html=1;fillColor=#dae8fc;strokeColor=#6c8ebf;" parent="8--45SvLZGRJWrr07VA9-4" vertex="1">
          <mxGeometry x="150" y="105" width="80" height="30" as="geometry" />
        </mxCell>
        <mxCell id="8--45SvLZGRJWrr07VA9-27" value="黑名单" style="rounded=0;whiteSpace=wrap;html=1;dashed=1;" parent="8--45SvLZGRJWrr07VA9-4" vertex="1">
          <mxGeometry x="20" y="160" width="90" height="30" as="geometry" />
        </mxCell>
        <mxCell id="8--45SvLZGRJWrr07VA9-26" style="edgeStyle=orthogonalEdgeStyle;rounded=0;orthogonalLoop=1;jettySize=auto;html=1;" parent="8--45SvLZGRJWrr07VA9-4" source="8--45SvLZGRJWrr07VA9-24" target="8--45SvLZGRJWrr07VA9-25" edge="1">
          <mxGeometry relative="1" as="geometry">
            <mxPoint x="200" y="135" as="targetPoint" />
          </mxGeometry>
        </mxCell>
        <mxCell id="8--45SvLZGRJWrr07VA9-16" value="不在上述名单中的，报错？返回错误？" style="rounded=1;whiteSpace=wrap;html=1;fillColor=#dae8fc;strokeColor=#6c8ebf;" parent="8--45SvLZGRJWrr07VA9-4" vertex="1">
          <mxGeometry x="100" y="170" width="110" height="60" as="geometry" />
        </mxCell>
        <mxCell id="8--45SvLZGRJWrr07VA9-71" value="全局生效" style="rounded=1;whiteSpace=wrap;html=1;fillColor=#ffe6cc;strokeColor=#d79b00;" parent="8--45SvLZGRJWrr07VA9-4" vertex="1">
          <mxGeometry x="490" y="35" width="120" height="35" as="geometry" />
        </mxCell>
        <mxCell id="8--45SvLZGRJWrr07VA9-64" value="proc层级" style="swimlane;whiteSpace=wrap;html=1;" parent="1" vertex="1">
          <mxGeometry x="420" y="280" width="560" height="250" as="geometry" />
        </mxCell>
        <mxCell id="8--45SvLZGRJWrr07VA9-70" value="一个被定义的proc：&lt;div&gt;1. 内部执行&lt;b&gt;全局替换 &lt;/b&gt;和&lt;b&gt;&amp;nbsp;&lt;/b&gt;&lt;span style=&quot;font-weight: 700; text-align: center;&quot;&gt;command name 层级&lt;/span&gt;&lt;b&gt;&amp;nbsp;不执行&amp;nbsp;&lt;/b&gt;&lt;/div&gt;&lt;div&gt;2.&amp;nbsp;&lt;span style=&quot;background-color: initial; font-weight: 700;&quot;&gt;command name 层级/&lt;/span&gt;&lt;span style=&quot;background-color: initial; font-weight: 700;&quot;&gt;keyword/parameter &lt;/span&gt;&lt;span style=&quot;background-color: initial;&quot;&gt;调用该proc，&lt;/span&gt;&lt;/div&gt;" style="rounded=1;whiteSpace=wrap;html=1;fillColor=#ffe6cc;strokeColor=#d79b00;align=left;" parent="8--45SvLZGRJWrr07VA9-64" vertex="1">
          <mxGeometry x="310" y="34" width="240" height="86" as="geometry" />
        </mxCell>
        <mxCell id="M8b2lQpFjyDXOdki4PDH-1" value="全局替换" style="swimlane;whiteSpace=wrap;html=1;" vertex="1" parent="1">
          <mxGeometry x="410" y="149" width="670" height="811" as="geometry" />
        </mxCell>
        <mxCell id="M8b2lQpFjyDXOdki4PDH-6" style="edgeStyle=orthogonalEdgeStyle;rounded=0;orthogonalLoop=1;jettySize=auto;html=1;entryX=0;entryY=0.5;entryDx=0;entryDy=0;" edge="1" parent="M8b2lQpFjyDXOdki4PDH-1" source="M8b2lQpFjyDXOdki4PDH-3" target="M8b2lQpFjyDXOdki4PDH-4">
          <mxGeometry relative="1" as="geometry" />
        </mxCell>
        <mxCell id="M8b2lQpFjyDXOdki4PDH-3" value="替换名单" style="rounded=0;whiteSpace=wrap;html=1;" vertex="1" parent="M8b2lQpFjyDXOdki4PDH-1">
          <mxGeometry x="10" y="30" width="90" height="30" as="geometry" />
        </mxCell>
        <mxCell id="M8b2lQpFjyDXOdki4PDH-4" value="直接替换" style="rounded=1;whiteSpace=wrap;html=1;fillColor=#dae8fc;strokeColor=#6c8ebf;" vertex="1" parent="M8b2lQpFjyDXOdki4PDH-1">
          <mxGeometry x="140" y="30" width="80" height="30" as="geometry" />
        </mxCell>
        <mxCell id="M8b2lQpFjyDXOdki4PDH-5" value="全局生效&lt;div&gt;直接替换&lt;/div&gt;" style="rounded=1;whiteSpace=wrap;html=1;fillColor=#ffe6cc;strokeColor=#d79b00;" vertex="1" parent="M8b2lQpFjyDXOdki4PDH-1">
          <mxGeometry x="250" y="30" width="120" height="50" as="geometry" />
        </mxCell>
        <mxCell id="M8b2lQpFjyDXOdki4PDH-7" value="对内" style="rounded=0;whiteSpace=wrap;html=1;" vertex="1" parent="M8b2lQpFjyDXOdki4PDH-1">
          <mxGeometry x="20" y="271" width="90" height="30" as="geometry" />
        </mxCell>
        <mxCell id="M8b2lQpFjyDXOdki4PDH-16" value="支持直接替换" style="rounded=1;whiteSpace=wrap;html=1;fillColor=#dae8fc;strokeColor=#6c8ebf;" vertex="1" parent="M8b2lQpFjyDXOdki4PDH-1">
          <mxGeometry x="140" y="271" width="80" height="30" as="geometry" />
        </mxCell>
        <mxCell id="M8b2lQpFjyDXOdki4PDH-17" value="对外" style="rounded=0;whiteSpace=wrap;html=1;" vertex="1" parent="M8b2lQpFjyDXOdki4PDH-1">
          <mxGeometry x="20" y="331" width="90" height="30" as="geometry" />
        </mxCell>
        <mxCell id="M8b2lQpFjyDXOdki4PDH-19" style="edgeStyle=orthogonalEdgeStyle;rounded=0;orthogonalLoop=1;jettySize=auto;html=1;exitX=1;exitY=0.5;exitDx=0;exitDy=0;entryX=0;entryY=0.5;entryDx=0;entryDy=0;" edge="1" parent="M8b2lQpFjyDXOdki4PDH-1" source="M8b2lQpFjyDXOdki4PDH-7" target="M8b2lQpFjyDXOdki4PDH-16">
          <mxGeometry relative="1" as="geometry" />
        </mxCell>
        <mxCell id="M8b2lQpFjyDXOdki4PDH-20" value="proc proc_name {param1, param2 } {&lt;div&gt;&lt;span style=&quot;white-space: pre;&quot;&gt;&#x9;&lt;/span&gt;... proc func ...&lt;/div&gt;&lt;div&gt;}&lt;/div&gt;" style="rounded=0;whiteSpace=wrap;html=1;align=left;" vertex="1" parent="M8b2lQpFjyDXOdki4PDH-1">
          <mxGeometry x="20" y="171" width="210" height="69" as="geometry" />
        </mxCell>
      </root>
    </mxGraphModel>
  </diagram>
</mxfile>
